<svg width="111" height="38" viewBox="0 0 111 38" fill="none" xmlns="http://www.w3.org/2000/svg">
<path d="M23.6461 7.27554C23.6638 7.28788 23.6803 7.30181 23.6954 7.31717L25.5146 9.12246L27.9812 9.30746C28.0938 9.31671 28.2279 9.4015 28.2495 9.55567L31.598 32.2074L22.1198 34.2578L4.625 30.9802C4.625 30.9802 6.86967 13.618 6.95446 13.0028C7.067 12.195 7.09475 12.1688 7.95346 11.899L10.7223 11.0403C11.3143 8.52892 13.2044 3.58325 17.1587 3.58325C17.6752 3.58325 18.2734 3.86075 18.7575 4.499L18.9008 4.49438C20.5982 4.49438 21.5633 5.942 22.1106 7.51604L23.0279 7.23238C23.1512 7.19538 23.4565 7.14604 23.6445 7.27554H23.6461ZM18.9024 14.5445C18.9024 14.5445 18.1115 14.0866 16.5128 14.0866C12.3626 14.0866 10.306 16.8585 10.306 19.723C10.306 23.127 13.7023 23.2195 13.7023 25.2899C13.7023 25.791 13.3477 26.477 12.4767 26.477C11.1447 26.477 9.56604 25.1203 9.56604 25.1203L8.76283 27.7782C8.76283 27.7782 10.2983 29.6467 13.3015 29.6467C15.8036 29.6467 17.6598 27.7628 17.6598 24.8367C17.6598 21.1166 13.5204 20.5092 13.5204 18.9213C13.5204 18.6284 13.6129 17.4752 15.4537 17.4752C16.2441 17.4875 17.022 17.6739 17.7322 18.021L18.9024 14.5445ZM21.1455 7.81359C20.7709 6.66813 20.1881 5.67221 19.3125 5.56275C19.5298 6.18713 19.667 6.97492 19.667 7.95234L19.6655 8.273L21.1455 7.81359ZM18.2271 5.757C17.262 6.17017 16.1582 7.26784 15.5708 9.54025L18.628 8.59367V8.42254C18.628 7.24163 18.4707 6.36596 18.2271 5.75546V5.757ZM17.0524 4.64392C14.2095 4.64392 12.6139 8.37475 11.9417 10.6641L14.3575 9.91488C14.9326 6.91479 16.2908 5.41321 17.5596 4.81659C17.4113 4.70934 17.2338 4.65015 17.0508 4.647L17.0524 4.64392Z" fill="#1C0F04"/>
<path d="M48.44 27.168C47.272 27.168 46.216 26.968 45.272 26.568C44.344 26.168 43.608 25.592 43.064 24.84C42.52 24.088 42.24 23.2 42.224 22.176H45.824C45.872 22.864 46.112 23.408 46.544 23.808C46.992 24.208 47.6 24.408 48.368 24.408C49.152 24.408 49.768 24.224 50.216 23.856C50.664 23.472 50.888 22.976 50.888 22.368C50.888 21.872 50.736 21.464 50.432 21.144C50.128 20.824 49.744 20.576 49.28 20.4C48.832 20.208 48.208 20 47.408 19.776C46.32 19.456 45.432 19.144 44.744 18.84C44.072 18.52 43.488 18.048 42.992 17.424C42.512 16.784 42.272 15.936 42.272 14.88C42.272 13.888 42.52 13.024 43.016 12.288C43.512 11.552 44.208 10.992 45.104 10.608C46 10.208 47.024 10.008 48.176 10.008C49.904 10.008 51.304 10.432 52.376 11.28C53.464 12.112 54.064 13.28 54.176 14.784H50.48C50.448 14.208 50.2 13.736 49.736 13.368C49.288 12.984 48.688 12.792 47.936 12.792C47.28 12.792 46.752 12.96 46.352 13.296C45.968 13.632 45.776 14.12 45.776 14.76C45.776 15.208 45.92 15.584 46.208 15.888C46.512 16.176 46.88 16.416 47.312 16.608C47.76 16.784 48.384 16.992 49.184 17.232C50.272 17.552 51.16 17.872 51.848 18.192C52.536 18.512 53.128 18.992 53.624 19.632C54.12 20.272 54.368 21.112 54.368 22.152C54.368 23.048 54.136 23.88 53.672 24.648C53.208 25.416 52.528 26.032 51.632 26.496C50.736 26.944 49.672 27.168 48.44 27.168ZM56.417 20.304C56.417 18.96 56.681 17.768 57.209 16.728C57.753 15.688 58.481 14.888 59.393 14.328C60.321 13.768 61.353 13.488 62.489 13.488C63.481 13.488 64.345 13.688 65.081 14.088C65.833 14.488 66.433 14.992 66.881 15.6V13.704H70.265V27H66.881V25.056C66.449 25.68 65.849 26.2 65.081 26.616C64.329 27.016 63.457 27.216 62.465 27.216C61.345 27.216 60.321 26.928 59.393 26.352C58.481 25.776 57.753 24.968 57.209 23.928C56.681 22.872 56.417 21.664 56.417 20.304ZM66.881 20.352C66.881 19.536 66.721 18.84 66.401 18.264C66.081 17.672 65.649 17.224 65.105 16.92C64.561 16.6 63.977 16.44 63.353 16.44C62.729 16.44 62.153 16.592 61.625 16.896C61.097 17.2 60.665 17.648 60.329 18.24C60.009 18.816 59.849 19.504 59.849 20.304C59.849 21.104 60.009 21.808 60.329 22.416C60.665 23.008 61.097 23.464 61.625 23.784C62.169 24.104 62.745 24.264 63.353 24.264C63.977 24.264 64.561 24.112 65.105 23.808C65.649 23.488 66.081 23.04 66.401 22.464C66.721 21.872 66.881 21.168 66.881 20.352ZM79.6426 16.464H77.3146V27H73.9066V16.464H72.3946V13.704H73.9066V13.032C73.9066 11.4 74.3706 10.2 75.2986 9.432C76.2266 8.664 77.6266 8.304 79.4986 8.352V11.184C78.6826 11.168 78.1146 11.304 77.7946 11.592C77.4746 11.88 77.3146 12.4 77.3146 13.152V13.704H79.6426V16.464ZM89.6921 27L85.1801 21.336V27H81.8201V9.24H85.1801V19.344L89.6441 13.704H94.0121L88.1561 20.376L94.0601 27H89.6921ZM94.9717 20.304C94.9717 18.96 95.2357 17.768 95.7637 16.728C96.3077 15.688 97.0357 14.888 97.9477 14.328C98.8757 13.768 99.9077 13.488 101.044 13.488C102.036 13.488 102.9 13.688 103.636 14.088C104.388 14.488 104.988 14.992 105.436 15.6V13.704H108.82V27H105.436V25.056C105.004 25.68 104.404 26.2 103.636 26.616C102.884 27.016 102.012 27.216 101.02 27.216C99.8997 27.216 98.8757 26.928 97.9477 26.352C97.0357 25.776 96.3077 24.968 95.7637 23.928C95.2357 22.872 94.9717 21.664 94.9717 20.304ZM105.436 20.352C105.436 19.536 105.276 18.84 104.956 18.264C104.636 17.672 104.204 17.224 103.66 16.92C103.116 16.6 102.532 16.44 101.908 16.44C101.284 16.44 100.708 16.592 100.18 16.896C99.6517 17.2 99.2197 17.648 98.8837 18.24C98.5637 18.816 98.4037 19.504 98.4037 20.304C98.4037 21.104 98.5637 21.808 98.8837 22.416C99.2197 23.008 99.6517 23.464 100.18 23.784C100.724 24.104 101.3 24.264 101.908 24.264C102.532 24.264 103.116 24.112 103.66 23.808C104.204 23.488 104.636 23.04 104.956 22.464C105.276 21.872 105.436 21.168 105.436 20.352Z" fill="#1C0F04"/>
</svg>
