<svg width="12" height="12" viewBox="0 0 12 12" fill="none" xmlns="http://www.w3.org/2000/svg">
<path d="M5.99984 0.666656C6.70708 0.666656 7.38536 0.947608 7.88546 1.4477C8.38555 1.9478 8.6665 2.62608 8.6665 3.33332C8.6665 4.04057 8.38555 4.71884 7.88546 5.21894C7.38536 5.71904 6.70708 5.99999 5.99984 5.99999C5.29259 5.99999 4.61432 5.71904 4.11422 5.21894C3.61412 4.71884 3.33317 4.04057 3.33317 3.33332C3.33317 2.62608 3.61412 1.9478 4.11422 1.4477C4.61432 0.947608 5.29259 0.666656 5.99984 0.666656ZM5.99984 1.99999C5.64622 1.99999 5.30708 2.14047 5.05703 2.39051C4.80698 2.64056 4.6665 2.9797 4.6665 3.33332C4.6665 3.68695 4.80698 4.02608 5.05703 4.27613C5.30708 4.52618 5.64622 4.66666 5.99984 4.66666C6.35346 4.66666 6.6926 4.52618 6.94265 4.27613C7.19269 4.02608 7.33317 3.68695 7.33317 3.33332C7.33317 2.9797 7.19269 2.64056 6.94265 2.39051C6.6926 2.14047 6.35346 1.99999 5.99984 1.99999ZM5.99984 6.66666C7.77984 6.66666 11.3332 7.55332 11.3332 9.33332V11.3333H0.666504V9.33332C0.666504 7.55332 4.21984 6.66666 5.99984 6.66666ZM5.99984 7.93332C4.01984 7.93332 1.93317 8.90666 1.93317 9.33332V10.0667H10.0665V9.33332C10.0665 8.90666 7.97984 7.93332 5.99984 7.93332Z" fill="#1C0F04"/>
</svg>
