<svg width="40" height="48" viewBox="0 0 40 48" fill="none" xmlns="http://www.w3.org/2000/svg">
<path d="M12.7457 47.4902C11.1746 47.4051 9.69613 46.7199 8.61555 45.5763C7.32278 44.3326 6.16916 42.9519 5.17503 41.4586C3.62212 39.2349 2.39461 36.8009 1.52963 34.2303C0.550703 31.4647 0.035718 28.5563 0.00550724 25.6228C-0.070543 22.7443 0.64229 19.8999 2.06682 17.3975C3.11016 15.5938 4.59833 14.0875 6.38934 13.0225C8.16053 11.962 10.1817 11.3912 12.246 11.3685C13.8021 11.4605 15.3313 11.8162 16.7684 12.4204C17.9152 12.9251 19.1195 13.2799 20.3563 13.4747C21.7206 13.189 23.0536 12.7705 24.3365 12.2255C25.8548 11.6326 27.4624 11.3007 29.0913 11.2435C29.3086 11.2435 29.5235 11.2435 29.7309 11.2685C33.3039 11.371 36.6269 13.125 38.7257 16.0158C37.0877 16.8919 35.7248 18.205 34.7883 19.8092C33.8519 21.4135 33.3787 23.246 33.4213 25.1031C33.4049 26.5231 33.6898 27.9304 34.257 29.2324C34.8242 30.5343 35.6609 31.7012 36.7119 32.6562C37.6688 33.5682 38.7832 34.2978 40 34.8125C39.7501 35.562 39.4628 36.2866 39.158 37.0162C38.4659 38.6284 37.612 40.1662 36.6095 41.6061C35.6615 43.0484 34.558 44.3823 33.3188 45.5838C32.1886 46.7053 30.6819 47.367 29.0913 47.4402C27.7429 47.3805 26.4184 47.0642 25.1885 46.5082C23.8623 45.9305 22.437 45.6141 20.9909 45.5763C19.504 45.6056 18.0366 45.9203 16.6684 46.5032C15.4867 47.0364 14.2242 47.3683 12.9331 47.4852L12.7457 47.4902ZM20.6161 11.2435C20.4288 11.2435 20.2414 11.2435 20.054 11.221C20.0146 10.9236 19.9937 10.6241 19.9915 10.3241C20.0732 7.82833 21.0486 5.44496 22.7399 3.60792C23.6859 2.55217 24.8326 1.69518 26.113 1.08687C27.3062 0.472614 28.6102 0.103082 29.9483 0C29.9858 0.327312 29.9858 0.647128 29.9858 0.951953C29.9506 3.40846 29.0276 5.76924 27.3873 7.59813C26.593 8.66307 25.5753 9.54125 24.4056 10.171C23.2358 10.8008 21.9424 11.1668 20.6161 11.2435Z" fill="black"/>
</svg>
