<svg width="53" height="41" viewBox="0 0 53 41" fill="none" xmlns="http://www.w3.org/2000/svg">
<path d="M8.109 7.56322C8.109 7.56322 4.01972 11.4703 3.79613 15.6027V16.3712C3.97666 19.7102 6.49581 21.6761 6.49581 21.6761C10.5337 25.6263 20.3156 30.595 22.6095 31.718C22.6095 31.718 22.7469 31.7875 22.8331 31.7014L22.8761 31.6153V31.5209C16.6056 17.8568 8.10734 7.56487 8.10734 7.56487L8.109 7.56322ZM21.3077 35.0802C21.2646 34.8996 21.0923 34.8996 21.0923 34.8996L4.7965 35.4777C6.55709 38.6345 9.54166 41.0592 12.6554 40.3338C14.7771 39.7822 19.6348 36.4002 21.2215 35.2524C21.359 35.1398 21.3077 35.0536 21.3077 35.0536V35.0802ZM21.4882 33.3543C14.3282 28.5148 0.465406 21.1229 0.465406 21.1229C0.169364 22.0492 0.0125182 23.0143 0 23.9866L0 24.1423C0 26.5057 0.879469 28.162 0.879469 28.162C2.64834 31.8968 6.04697 33.0281 6.04697 33.0281C7.60053 33.6839 9.14416 33.7088 9.14416 33.7088C9.41081 33.7518 18.8581 33.7088 21.3756 33.7088C21.4882 33.7088 21.5561 33.5962 21.5561 33.5962V33.467C21.5561 33.3974 21.4865 33.3543 21.4865 33.3543H21.4882ZM20.0042 1.04919C18.4395 1.44988 17.0443 2.3411 16.0229 3.5923C15.0015 4.8435 14.4076 6.38891 14.3282 8.00212V8.90809C14.3668 9.69164 14.4855 10.4692 14.6827 11.2285C16.1402 17.6299 23.214 28.1189 24.7328 30.3267C24.8454 30.4393 24.9564 30.3963 24.9564 30.3963C24.9987 30.3773 25.034 30.3455 25.0572 30.3054C25.0804 30.2653 25.0903 30.2188 25.0856 30.1727C27.4325 6.76987 22.636 0.540719 22.636 0.540719C21.9287 0.583781 20.0042 1.04919 20.0042 1.04919ZM38.3356 6.061C38.3356 6.061 37.2573 2.08434 32.9528 1.02269C32.9528 1.02269 31.694 0.711312 30.364 0.539062C30.364 0.539062 25.551 6.74172 27.8879 30.1959C27.9144 30.3516 28.0254 30.3681 28.0254 30.3681C28.1811 30.4377 28.2407 30.3085 28.2407 30.3085C29.8373 28.0312 36.8582 17.5852 38.2908 11.2268C38.2908 11.2268 39.0842 8.12966 38.3339 6.05934L38.3356 6.061ZM31.8911 34.9245C31.8911 34.9245 31.7354 34.9245 31.6923 35.0288C31.6923 35.0288 31.6658 35.1845 31.752 35.2524C33.2956 36.382 38.049 39.6696 40.3264 40.3338C40.3264 40.3338 40.6808 40.4464 41.2754 40.463H41.5768C43.1039 40.4199 45.7771 39.6514 48.2018 35.4777L31.8629 34.9261L31.8911 34.9245ZM49.179 16.3529C49.4904 11.7983 44.891 7.57978 44.891 7.56322C44.891 7.56322 36.3944 17.8552 30.1653 31.4149C30.1653 31.4149 30.0957 31.5871 30.2083 31.6997L30.2945 31.7163H30.4319C32.7689 30.552 42.4828 25.5998 46.5025 21.6927C46.5025 21.6927 49.0465 19.6389 49.1774 16.3529H49.179ZM52.5346 21.0799C52.5346 21.0799 38.6718 28.5164 31.5118 33.3295C31.5118 33.3295 31.3992 33.4239 31.4422 33.5796C31.4422 33.5796 31.5118 33.7088 31.5979 33.7088C34.1602 33.7088 43.8823 33.7088 44.1242 33.6657C44.1242 33.6657 45.3829 33.6227 46.9282 33.0281C46.9282 33.0281 50.3699 31.9233 52.1636 28.008C52.1636 28.008 53.7768 24.8081 52.5346 21.0815V21.0799Z" fill="black"/>
</svg>
