<svg width="50" height="18" viewBox="0 0 50 18" fill="none" xmlns="http://www.w3.org/2000/svg">
<path d="M42.1953 7.79414C41.963 7.79216 41.7328 7.83809 41.519 7.92904C41.3053 8.02 41.1125 8.15403 40.9529 8.32278C40.7932 8.49154 40.67 8.69139 40.591 8.90986C40.512 9.12833 40.4789 9.36074 40.4938 9.59258C40.4854 9.8252 40.5237 10.0572 40.6064 10.2747C40.6891 10.4923 40.8146 10.6912 40.9753 10.8595C41.1361 11.0278 41.3289 11.1623 41.5425 11.2549C41.756 11.3475 41.986 11.3965 42.2188 11.3988C42.4515 11.4 42.682 11.3532 42.8959 11.2614C43.1098 11.1697 43.3025 11.0349 43.4621 10.8655C43.6217 10.6961 43.7447 10.4957 43.8236 10.2767C43.9024 10.0577 43.9353 9.82484 43.9203 9.59258C43.9278 9.36054 43.8889 9.12934 43.8058 8.91257C43.7227 8.6958 43.5971 8.49782 43.4364 8.33028C43.2756 8.16273 43.0831 8.029 42.87 7.93693C42.6568 7.84486 42.4275 7.79631 42.1953 7.79414ZM28.6297 7.79414C28.3978 7.7923 28.1681 7.83839 27.9549 7.92953C27.7417 8.02066 27.5496 8.15486 27.3908 8.32373C27.2319 8.49259 27.1096 8.69246 27.0316 8.91081C26.9536 9.12916 26.9216 9.36127 26.9375 9.59258C26.9285 9.82537 26.9664 10.0576 27.0488 10.2755C27.1313 10.4933 27.2567 10.6924 27.4176 10.8609C27.5785 11.0294 27.7716 11.1638 27.9855 11.2562C28.1993 11.3486 28.4295 11.3971 28.6625 11.3988C28.8949 11.4 29.125 11.3533 29.3384 11.2614C29.5518 11.1696 29.744 11.0346 29.9029 10.8651C30.0617 10.6955 30.1839 10.495 30.2616 10.276C30.3394 10.057 30.371 9.82436 30.3547 9.59258C30.3628 9.36038 30.3243 9.1289 30.2415 8.91184C30.1586 8.69479 30.033 8.49655 29.8722 8.32887C29.7114 8.16119 29.5185 8.02748 29.3051 7.93563C29.0917 7.84378 28.862 7.79567 28.6297 7.79414ZM14.0297 7.68008C13.7685 7.67205 13.5091 7.72607 13.2728 7.8377C13.0365 7.94933 12.83 8.11539 12.6703 8.32227C12.3531 8.76464 12.2244 9.31479 12.3125 9.85195L15.3891 8.58164C15.2765 8.31403 15.0875 8.08559 14.8457 7.92494C14.6038 7.76429 14.32 7.67857 14.0297 7.67852V7.68008ZM0 0.666016V17.3332H50V0.666016H0ZM10.4328 12.8082H4.63906V4.47539H6.42969V11.1895H10.4344L10.4328 12.8082ZM14.2172 11.5129C14.8922 11.5207 15.5516 11.2848 16.0562 10.8285L17.1719 11.6832C16.378 12.4711 15.3045 12.9127 14.1859 12.9113C13.7329 12.9556 13.2756 12.9064 12.8424 12.7667C12.4092 12.627 12.0094 12.3998 11.6676 12.0992C11.3258 11.7986 11.0494 11.4309 10.8556 11.0191C10.6617 10.6073 10.5545 10.16 10.5406 9.70508C10.5276 9.24913 10.6085 8.79537 10.7783 8.37201C10.9481 7.94865 11.2031 7.56472 11.5275 7.2441C11.852 6.92347 12.2389 6.67299 12.6642 6.50823C13.0896 6.34346 13.5442 6.26793 14 6.28633C14.4725 6.26365 14.9443 6.34527 15.3818 6.52538C15.8192 6.70549 16.2117 6.97969 16.5312 7.32852C16.9547 7.84102 17.2234 8.45977 17.3047 9.11914L12.7969 10.9988C13.1797 11.3488 13.6922 11.5363 14.2203 11.5113L14.2172 11.5129ZM24.3891 12.8082H22.6234V9.15352C22.6165 8.96701 22.5724 8.78376 22.4939 8.61444C22.4153 8.44513 22.3039 8.29314 22.166 8.16735C22.0282 8.04155 21.8666 7.94445 21.6908 7.88172C21.5151 7.81898 21.3286 7.79187 21.1422 7.80195C20.9568 7.79074 20.7711 7.81723 20.5962 7.87984C20.4214 7.94245 20.2611 8.03987 20.1249 8.16621C19.9888 8.29254 19.8797 8.44518 19.8043 8.61488C19.7288 8.78458 19.6886 8.96782 19.6859 9.15352V12.8082H17.9281V6.38789H19.6938V7.3082C19.9412 6.99144 20.2571 6.73472 20.6178 6.55723C20.9785 6.37973 21.3746 6.28606 21.7766 6.2832C22.1187 6.26415 22.4611 6.31652 22.7818 6.437C23.1026 6.55748 23.3948 6.74342 23.6398 6.98298C23.8848 7.22255 24.0773 7.5105 24.2049 7.8285C24.3326 8.14651 24.3926 8.4876 24.3813 8.83008L24.3891 12.8082ZM28.5234 12.9129C25.6016 12.791 24.2516 9.22695 26.3672 7.20039C28.475 5.18164 31.9828 6.6707 31.9828 9.59258C31.9812 10.04 31.8896 10.4825 31.7135 10.8938C31.5373 11.305 31.2802 11.6767 30.9574 11.9865C30.6346 12.2963 30.2527 12.538 29.8346 12.6971C29.4164 12.8563 28.9705 12.9297 28.5234 12.9129ZM34.35 12.7988L31.7125 6.38633H33.7219L35.3172 10.7645L36.9125 6.38633H38.9219L36.2766 12.7988H34.35ZM42.0812 12.9129C39.1672 12.791 37.8172 9.22695 39.925 7.20039C42.0406 5.18164 45.5406 6.6707 45.5406 9.59258C45.5397 10.0402 45.4485 10.483 45.2726 10.8946C45.0967 11.3061 44.8395 11.678 44.5166 11.988C44.1937 12.2979 43.8116 12.5396 43.3931 12.6985C42.9747 12.8574 42.5285 12.9303 42.0812 12.9129ZM46.2484 12.0426H45.9547V12.8082H45.7844V12.0426H45.5V11.8801H46.2484V12.0426ZM47.3797 12.8082H47.2094V12.1488L46.925 12.5957H46.9L46.6156 12.1488V12.8082H46.4453V11.8801H46.6328L46.9094 12.3191L47.1859 11.8801H47.3734L47.3797 12.8082Z" fill="black"/>
</svg>
