<svg width="50" height="10" viewBox="0 0 50 10" fill="none" xmlns="http://www.w3.org/2000/svg">
<path d="M2.42451 9.06992H0.0151367V0.963672H4.17295L8.94951 7.01836V0.963672H11.3589V9.06992H7.28232L2.42451 2.9168V9.06992ZM22.8667 6.56367C22.8667 7.68711 22.6636 8.07773 22.3292 8.45117C21.8245 9.0043 21.0839 9.17617 19.6511 9.17617H15.5417C14.1089 9.17617 13.3683 9.00586 12.8558 8.45117C12.5214 8.07617 12.3183 7.69492 12.3183 6.56367V3.43867C12.3183 2.31523 12.5214 1.92461 12.8558 1.55898C13.3683 0.998046 14.1089 0.833984 15.5417 0.833984H19.6511C21.0745 0.833984 21.8245 0.996484 22.3292 1.55898C22.6636 1.92461 22.8667 2.31523 22.8667 3.44648V6.56367ZM19.5464 7.12461C20.0995 7.12461 20.287 7.0918 20.4261 6.96992C20.5479 6.85586 20.6058 6.71836 20.6058 6.23711V3.76367C20.6058 3.2918 20.5495 3.14492 20.4261 3.03867C20.287 2.9168 20.1011 2.88398 19.5464 2.88398H15.6401C15.0948 2.88398 14.8995 2.9168 14.7698 3.03867C14.6401 3.14492 14.5901 3.29023 14.5901 3.76367V6.23711C14.5901 6.7168 14.6464 6.85586 14.7698 6.96992C14.8995 7.0918 15.0948 7.12461 15.6401 7.12461H19.5464ZM26.3667 0.965234V9.07148H23.8526V0.965234H26.3667ZM30.6151 0.965234H33.9276L29.4511 4.75742L34.5042 9.06992H30.9479L26.3667 4.84648L30.6151 0.973046V0.965234ZM34.9683 0.973046H37.4823V9.06992H34.9683V0.973046ZM47.0698 9.06992L46.3214 7.66211H41.4542L40.7214 9.06992H37.9464L42.3979 0.963672H45.5229L49.9823 9.06992H47.0683H47.0698ZM42.3339 5.90429H45.4589L43.8964 2.9668L42.3339 5.90429Z" fill="black"/>
</svg>
