<svg width="53" height="9" viewBox="0 0 53 9" fill="none" xmlns="http://www.w3.org/2000/svg">
<path d="M43.7614 0.704876L43.8658 6.64916H43.8144L42.0886 0.704876H39.2598V8.19278H41.1313L41.027 2.04147H41.0783L42.925 8.19278H45.633V0.704876H43.7614ZM8.10072 0.704876L6.68628 8.27062H8.73009L9.77353 1.38725H9.81659L10.8352 8.27062H12.8624L11.4646 0.704876H8.10072ZM19.5388 0.704876L18.6063 6.47525H18.555L17.6142 0.704876H14.5253L14.3779 8.27062H16.276L16.3273 1.46509H16.3439L17.6126 8.27062H19.5355L20.8042 1.46509H20.8555L20.9068 8.27062H22.8049L22.6244 0.704876H19.5388ZM3.49303 6.12247C3.57087 6.29472 3.54437 6.55309 3.51953 6.674C3.46819 6.93238 3.286 7.18247 2.78581 7.18247C2.30219 7.18247 2.02725 6.90588 2.02725 6.50175V5.76803H0V6.34606C0 8.04538 1.33659 8.54556 2.76097 8.54556C4.12406 8.54556 5.26191 8.07188 5.44409 6.82969C5.54844 6.17381 5.47059 5.74319 5.44409 5.5875C5.08966 3.99088 2.20116 3.54369 2.00241 2.65428C1.97568 2.52034 1.97568 2.38244 2.00241 2.2485C2.05375 1.99841 2.226 1.74003 2.68313 1.74003C3.14025 1.74003 3.39034 2.01663 3.39034 2.42075V2.87788H5.28841V2.35119C5.28841 0.703219 3.79612 0.453125 2.73447 0.453125C1.38794 0.453125 0.276594 0.901969 0.0778437 2.11766C0.0093426 2.45481 0.0184044 2.80312 0.104344 3.13625C0.405781 4.69809 3.11541 5.15522 3.49469 6.12081L3.49303 6.12247ZM28.1215 6.12247C28.1993 6.29472 28.1728 6.52825 28.148 6.674C28.0966 6.93238 27.9144 7.18247 27.4142 7.18247C26.9306 7.18247 26.6557 6.90588 26.6557 6.50175V5.76803H24.6284V6.34606C24.6284 8.01888 25.9402 8.529 27.3629 8.529C28.726 8.529 29.839 8.07187 30.0195 6.80319C30.1239 6.14731 30.046 5.74153 30.0195 5.561C29.7181 3.99087 26.8544 3.51719 26.6557 2.65428C26.629 2.52034 26.629 2.38244 26.6557 2.2485C26.6987 1.99841 26.8793 1.74003 27.3364 1.74003C27.767 1.74003 28.0436 2.01663 28.0436 2.42075V2.87788H29.9152V2.35119C29.9152 0.703219 28.4494 0.453125 27.3877 0.453125C26.0412 0.453125 24.9547 0.875469 24.756 2.11766C24.7046 2.44559 24.7046 2.75531 24.7725 3.13625C25.0839 4.69809 27.7405 5.12872 28.1198 6.12081L28.1215 6.12247ZM34.4964 7.13278C35.0313 7.13278 35.1771 6.77835 35.2301 6.58125C35.2566 6.50341 35.2566 6.37422 35.2566 6.29637V0.706531H37.1795V6.14897C37.1795 6.29638 37.1795 6.5796 37.153 6.64916C37.0321 8.07188 35.9108 8.529 34.5212 8.529C33.1316 8.529 32.0203 8.07188 31.8894 6.64916C31.8894 6.5796 31.8629 6.29472 31.8629 6.14897V0.706531H33.7858V6.29637C33.7858 6.40072 33.7858 6.50341 33.8123 6.58125C33.8123 6.78 33.968 7.13278 34.4931 7.13278H34.4964ZM50.292 7.05494C50.8535 7.05494 51.0258 6.7005 51.0771 6.50341C51.1036 6.42556 51.1036 6.29638 51.1036 6.22681V5.13203H50.3185V4.01903H53.0017V6.04628C53.0017 6.20197 53.0017 6.29637 52.9752 6.55475C52.846 7.94434 51.6551 8.42631 50.3185 8.42631C48.972 8.42631 47.7911 7.94269 47.6619 6.55475C47.6354 6.29637 47.6354 6.20031 47.6354 6.04628V2.85469C47.6354 2.73378 47.6619 2.47541 47.6619 2.3545C47.8342 0.931782 48.9737 0.474657 50.3185 0.474657C51.6551 0.474657 52.8195 0.931782 52.9752 2.3545C53.0017 2.57809 53.0017 2.85469 53.0017 2.85469V3.11306H51.1036V2.68244C51.1036 2.68244 51.1036 2.50191 51.0771 2.39756C51.0506 2.22531 50.8966 1.84603 50.3185 1.84603C49.7571 1.84603 49.6113 2.20047 49.56 2.39756C49.5335 2.50191 49.5335 2.63109 49.5335 2.76028V6.22847C49.5335 6.32287 49.5335 6.42722 49.56 6.50506C49.56 6.70381 49.7587 7.05659 50.2937 7.05659L50.292 7.05494Z" fill="black"/>
</svg>
