<svg width="46" height="46" viewBox="0 0 46 46" fill="none" xmlns="http://www.w3.org/2000/svg">
<path d="M23 0C15.364 0 9.11567 0.48875 4.77825 4.82233C0.440833 9.154 0 15.3966 0 23.023C0 30.6513 0.440834 36.8901 4.78017 41.2256C9.11758 45.5592 15.3659 46 23 46C30.6341 46 36.8824 45.5592 41.2198 41.2256C45.5592 36.8901 46 30.6475 46 23.023C46 15.387 45.5534 9.14058 41.2045 4.807C36.8652 0.483 30.6245 0 23 0ZM9.40317 14.1929H20.1825C23 14.1929 25.9459 14.3232 27.3968 15.778C28.8267 17.2078 28.9819 20.0579 28.9877 22.8237V31.5253C28.9862 31.6013 28.9547 31.6735 28.9001 31.7263C28.8455 31.7791 28.7723 31.8081 28.6963 31.8071H24.9646C24.9268 31.8076 24.8893 31.8007 24.8543 31.7867C24.8192 31.7727 24.7872 31.7519 24.7602 31.7256C24.7331 31.6993 24.7115 31.6678 24.6966 31.6331C24.6817 31.5985 24.6738 31.5612 24.6733 31.5234V22.6742C24.6694 21.1293 24.5812 19.5423 23.7839 18.7431C23.0977 18.0531 21.8174 17.8978 20.4872 17.8652H13.7195C13.6439 17.8647 13.5711 17.894 13.517 17.9467C13.4628 17.9995 13.4316 18.0714 13.4301 18.147V31.5253C13.4296 31.5631 13.4217 31.6004 13.4067 31.6351C13.3918 31.6698 13.3702 31.7012 13.3432 31.7275C13.3161 31.7539 13.2841 31.7746 13.2491 31.7886C13.214 31.8026 13.1765 31.8095 13.1388 31.809H9.40317C9.32758 31.809 9.25502 31.7792 9.20122 31.7262C9.14741 31.6731 9.11667 31.6009 9.11567 31.5253V14.4785C9.11617 14.4026 9.14669 14.3299 9.20055 14.2764C9.25441 14.2229 9.32725 14.1929 9.40317 14.1929ZM32.6543 14.1929H36.3898C36.4661 14.1929 36.5392 14.2232 36.5931 14.2771C36.647 14.331 36.6773 14.4042 36.6773 14.4804V31.5234C36.6763 31.599 36.6456 31.6711 36.5918 31.7242C36.538 31.7773 36.4654 31.8071 36.3898 31.8071H32.6543C32.5783 31.8076 32.5053 31.7781 32.4511 31.7249C32.3968 31.6718 32.3658 31.5993 32.3648 31.5234V14.4785C32.3651 14.4407 32.3728 14.4034 32.3875 14.3686C32.4021 14.3338 32.4235 14.3023 32.4504 14.2758C32.4773 14.2492 32.5091 14.2283 32.5441 14.2141C32.5791 14.1999 32.6165 14.1927 32.6543 14.1929ZM17.0967 20.9837H21.0182C21.1772 20.9837 21.3057 21.1102 21.3057 21.2654V31.5234C21.3047 31.599 21.2739 31.6711 21.2201 31.7242C21.1663 31.7773 21.0938 31.8071 21.0182 31.8071H17.0967C17.0589 31.8076 17.0214 31.8007 16.9863 31.7867C16.9513 31.7727 16.9193 31.7519 16.8922 31.7256C16.8652 31.6993 16.8436 31.6678 16.8287 31.6331C16.8138 31.5985 16.8058 31.5612 16.8053 31.5234V21.2654C16.8068 21.1895 16.8383 21.1173 16.8929 21.0645C16.9475 21.0117 17.0207 20.9826 17.0967 20.9837Z" fill="black"/>
</svg>
